<svg xmlns="http://www.w3.org/2000/svg" width="90" height="32" viewBox="0 0 90 32"><path d="M10.8 7.18h.08L13 20H8ZM0 32h6l1-7h7l1 7h8L16 0H7ZM32 6h1c4.93 0 5 5.68 5 9.22 0 4.07.22 10.78-5 10.78h-1Zm-7 26h9c9 0 12.08-7.7 12.08-16.48C46.08 6.49 42.16 0 33 0h-8ZM56.32 7.18h.09L59 20h-5ZM45 32h6l2-7h7l1 7h7L62 0H52Zm38-21c0-2.08-.46-5.29-3.15-5.29-3.15 0-3.6 4.63-3.6 10.33 0 6.31.29 10.25 3.77 10.25 2.74 0 3-2.29 3-6.29h7c0 6.75-3.85 12-10.32 12C70.65 32 68 24 68 16c0-7.4 2.61-16 11.68-16C86.81 0 90 4.64 90 11Z"/></svg>